<svg xmlns="http://www.w3.org/2000/svg" width="40" height="40" viewBox="0 0 40 40" fill="none">
  <path d="M21.88 40H18.1C17.2089 40 16.3542 39.646 15.7241 39.0159C15.094 38.3858 14.74 37.5311 14.74 36.64V34.46C14.7292 34.3316 14.6821 34.2088 14.6042 34.1062C14.5263 34.0035 14.4208 33.925 14.3 33.88C14.1776 33.8016 14.0353 33.7599 13.89 33.7599C13.7447 33.7599 13.6024 33.8016 13.48 33.88L12 35.48C11.6896 35.7926 11.3203 36.0407 10.9136 36.2101C10.5068 36.3794 10.0706 36.4666 9.63 36.4666C9.18941 36.4666 8.75318 36.3794 8.34643 36.2101C7.93968 36.0407 7.57045 35.7926 7.26 35.48L4.52 32.8C4.20284 32.4902 3.95095 32.1199 3.7792 31.7112C3.60745 31.3024 3.51931 30.8634 3.52 30.42C3.52128 29.513 3.88069 28.6433 4.52 28L6 26.52C6.07145 26.4098 6.10947 26.2813 6.10947 26.15C6.10947 26.0187 6.07145 25.8902 6 25.78C5.88 25.48 5.68 25.26 5.4 25.26H3.36C2.46704 25.2547 1.61245 24.8963 0.982898 24.263C0.353344 23.6297 -1.56324e-05 22.773 5.18689e-10 21.88V18.1C5.18689e-10 17.2089 0.353999 16.3542 0.984121 15.7241C1.61424 15.094 2.46887 14.74 3.36 14.74H5.54C5.66844 14.7292 5.79115 14.6821 5.89384 14.6042C5.99653 14.5263 6.07496 14.4208 6.12 14.3C6.1984 14.1776 6.24008 14.0353 6.24008 13.89C6.24008 13.7447 6.1984 13.6024 6.12 13.48L4.52 12C4.20737 11.6896 3.95925 11.3203 3.78993 10.9136C3.62061 10.5068 3.53344 10.0706 3.53344 9.63C3.53344 9.18941 3.62061 8.75318 3.78993 8.34643C3.95925 7.93968 4.20737 7.57045 4.52 7.26L7.2 4.52C7.50679 4.20434 7.87364 3.95325 8.27894 3.78151C8.68425 3.60977 9.11981 3.52086 9.56 3.52C10.0125 3.51801 10.4609 3.60532 10.8796 3.77692C11.2983 3.94851 11.679 4.20103 12 4.52L13.48 6C13.5902 6.07145 13.7187 6.10947 13.85 6.10947C13.9813 6.10947 14.1098 6.07145 14.22 6C14.52 5.88 14.74 5.68 14.74 5.4V3.36C14.7453 2.46704 15.1037 1.61245 15.737 0.982898C16.3703 0.353344 17.227 -1.56324e-05 18.12 5.18689e-10H22C22.8911 5.18688e-10 23.7458 0.353999 24.3759 0.984121C25.006 1.61424 25.36 2.46887 25.36 3.36V5.54C25.3708 5.66844 25.4179 5.79115 25.4958 5.89384C25.5737 5.99653 25.6792 6.07496 25.8 6.12C25.9224 6.1984 26.0647 6.24008 26.21 6.24008C26.3553 6.24008 26.4976 6.1984 26.62 6.12L28 4.52C28.3104 4.20737 28.6797 3.95925 29.0864 3.78993C29.4932 3.62061 29.9294 3.53344 30.37 3.53344C30.8106 3.53344 31.2468 3.62061 31.6536 3.78993C32.0603 3.95925 32.4296 4.20737 32.74 4.52L35.48 7.2C35.7963 7.51051 36.0476 7.88087 36.2192 8.28948C36.3909 8.69809 36.4796 9.13678 36.48 9.58C36.4896 10.0306 36.4058 10.4783 36.2336 10.8948C36.0615 11.3113 35.8049 11.6877 35.48 12L34 13.48C33.9285 13.5902 33.8905 13.7187 33.8905 13.85C33.8905 13.9813 33.9285 14.1098 34 14.22C34.12 14.52 34.32 14.74 34.6 14.74H36.78C37.6484 14.7812 38.4676 15.1553 39.0672 15.7848C39.6669 16.4143 40.001 17.2506 40 18.12V22C40 22.8911 39.646 23.7458 39.0159 24.3759C38.3858 25.006 37.5311 25.36 36.64 25.36H34.46C34.3316 25.3708 34.2088 25.4179 34.1062 25.4958C34.0035 25.5737 33.925 25.6792 33.88 25.8C33.8085 25.9102 33.7705 26.0387 33.7705 26.17C33.7705 26.3013 33.8085 26.4298 33.88 26.54L35.42 28.08C35.7326 28.3904 35.9807 28.7597 36.1501 29.1664C36.3194 29.5732 36.4066 30.0094 36.4066 30.45C36.4066 30.8906 36.3194 31.3268 36.1501 31.7336C35.9807 32.1403 35.7326 32.5095 35.42 32.82L32.8 35.48C32.4932 35.7957 32.1264 36.0467 31.7211 36.2185C31.3157 36.3902 30.8802 36.4791 30.44 36.48C29.5469 36.4683 28.6934 36.1097 28.06 35.48L26.52 34C26.4098 33.9285 26.2813 33.8905 26.15 33.8905C26.0187 33.8905 25.8902 33.9285 25.78 34C25.48 34.12 25.26 34.32 25.26 34.6V36.78C25.2188 37.6484 24.8447 38.4676 24.2152 39.0672C23.5857 39.6669 22.7494 40.001 21.88 40ZM18.74 36H21.26V34.46C21.2685 33.5377 21.5505 32.6387 22.0703 31.8768C22.5901 31.1149 23.3244 30.5243 24.18 30.18C25.0391 29.8045 25.9907 29.6933 26.9132 29.8607C27.8358 30.0281 28.6876 30.4665 29.36 31.12L30.44 32.2L32.2 30.44L31.12 29.34C30.4706 28.6778 30.0327 27.8375 29.8618 26.9259C29.6909 26.0143 29.7947 25.0725 30.16 24.22C30.5075 23.3681 31.0993 22.6381 31.861 22.122C32.6226 21.606 33.52 21.3269 34.44 21.32H36V18.74H34.46C33.5377 18.7315 32.6387 18.4495 31.8768 17.9297C31.1149 17.4098 30.5243 16.6756 30.18 15.82C29.8045 14.9609 29.6933 14.0093 29.8607 13.0868C30.0281 12.1642 30.4665 11.3124 31.12 10.64L32.2 9.56L30.44 7.8L29.34 8.88C28.6674 9.49433 27.8334 9.9037 26.936 10.0599C26.0386 10.2161 25.1152 10.1127 24.2747 9.76172C23.4341 9.41078 22.7113 8.82697 22.1914 8.07903C21.6715 7.3311 21.3761 6.45018 21.34 5.54V4H18.74V5.54C18.7315 6.46229 18.4495 7.36132 17.9297 8.12322C17.4098 8.88513 16.6756 9.47565 15.82 9.82C14.9609 10.1955 14.0093 10.3067 13.0868 10.1393C12.1642 9.97186 11.3124 9.53347 10.64 8.88L9.56 7.8L7.8 9.56L8.88 10.66C9.49433 11.3325 9.9037 12.1666 10.0599 13.064C10.2161 13.9614 10.1127 14.8848 9.76172 15.7253C9.41078 16.5659 8.82697 17.2887 8.07903 17.8086C7.3311 18.3285 6.45018 18.6239 5.54 18.66H4V21.18H5.54C6.46229 21.1885 7.36132 21.4705 8.12322 21.9903C8.88513 22.5101 9.47565 23.2444 9.82 24.1C10.1955 24.9591 10.3067 25.9107 10.1393 26.8332C9.97186 27.7558 9.53347 28.6076 8.88 29.28L7.8 30.36L9.56 32.12L10.66 31.04C11.3325 30.4257 12.1666 30.0163 13.064 29.8601C13.9614 29.7039 14.8848 29.8073 15.7253 30.1583C16.5659 30.5092 17.2887 31.093 17.8086 31.841C18.3285 32.5889 18.6239 33.4698 18.66 34.38L18.74 36Z" fill="#B8E4FE"/>
  <path d="M20 27C18.6155 27 17.2622 26.5895 16.111 25.8203C14.9599 25.0511 14.0627 23.9579 13.5328 22.6788C13.003 21.3997 12.8644 19.9922 13.1345 18.6344C13.4046 17.2765 14.0713 16.0292 15.0503 15.0503C16.0292 14.0713 17.2765 13.4046 18.6344 13.1345C19.9922 12.8644 21.3997 13.003 22.6788 13.5328C23.9579 14.0627 25.0511 14.9599 25.8203 16.111C26.5895 17.2622 27 18.6155 27 20C27 21.8565 26.2625 23.637 24.9497 24.9497C23.637 26.2625 21.8565 27 20 27ZM20 17C19.4067 17 18.8266 17.1759 18.3333 17.5056C17.8399 17.8352 17.4554 18.3038 17.2284 18.852C17.0013 19.4001 16.9419 20.0033 17.0576 20.5853C17.1734 21.1672 17.4591 21.7018 17.8787 22.1213C18.2982 22.5409 18.8328 22.8266 19.4147 22.9424C19.9967 23.0581 20.5999 22.9987 21.1481 22.7716C21.6962 22.5446 22.1648 22.1601 22.4944 21.6667C22.8241 21.1734 23 20.5933 23 20C23 19.2044 22.6839 18.4413 22.1213 17.8787C21.5587 17.3161 20.7957 17 20 17Z" fill="#B8E4FE"/>
</svg>