<svg width="40" height="40" viewBox="0 0 40 40" fill="none" xmlns="http://www.w3.org/2000/svg">
<path d="M33.3333 0H6.66667C4.89856 0 3.20286 0.702379 1.95262 1.95262C0.702379 3.20286 0 4.89856 0 6.66667V33.3333C0 35.1014 0.702379 36.7971 1.95262 38.0474C3.20286 39.2976 4.89856 40 6.66667 40H33.3333C35.1014 40 36.7971 39.2976 38.0474 38.0474C39.2976 36.7971 40 35.1014 40 33.3333V6.66667C40 4.89856 39.2976 3.20286 38.0474 1.95262C36.7971 0.702379 35.1014 0 33.3333 0ZM20 6.66667C20.4395 6.66667 20.8692 6.797 21.2346 7.04118C21.6 7.28536 21.8849 7.63242 22.0531 8.03848C22.2213 8.44454 22.2653 8.89135 22.1795 9.32242C22.0938 9.75349 21.8821 10.1495 21.5713 10.4602C21.2606 10.771 20.8646 10.9827 20.4335 11.0684C20.0025 11.1542 19.5557 11.1102 19.1496 10.942C18.7435 10.7738 18.3965 10.4889 18.1523 10.1235C17.9081 9.75805 17.7778 9.3284 17.7778 8.88889C17.7778 8.29952 18.0119 7.73429 18.4287 7.31754C18.8454 6.90079 19.4106 6.66667 20 6.66667ZM11.1111 6.66667C11.5506 6.66667 11.9803 6.797 12.3457 7.04118C12.7112 7.28536 12.996 7.63242 13.1642 8.03848C13.3324 8.44454 13.3764 8.89135 13.2906 9.32242C13.2049 9.75349 12.9932 10.1495 12.6825 10.4602C12.3717 10.771 11.9757 10.9827 11.5446 11.0684C11.1136 11.1542 10.6668 11.1102 10.2607 10.942C9.85465 10.7738 9.50758 10.4889 9.2634 10.1235C9.01922 9.75805 8.88889 9.3284 8.88889 8.88889C8.88889 8.29952 9.12302 7.73429 9.53976 7.31754C9.95651 6.90079 10.5217 6.66667 11.1111 6.66667ZM35.5556 33.3333C35.5556 33.9227 35.3214 34.4879 34.9047 34.9047C34.4879 35.3214 33.9227 35.5556 33.3333 35.5556H6.66667C6.0773 35.5556 5.51207 35.3214 5.09532 34.9047C4.67857 34.4879 4.44444 33.9227 4.44444 33.3333V17.7778H35.5556V33.3333Z" fill="#B8E4FE"/>
</svg>
